<svg preserveAspectRatio="none" overflow="visible" style="display: block;" width="35.0002" height="24.0016" viewBox="0 0 35.0002 24.0016" fill="none" xmlns="http://www.w3.org/2000/svg">
<g id="icon/esport_color">
<path id="Union" d="M8.20918 0.160274C8.63369 0.0631929 9.07504 0.229031 9.33125 0.581172L10.0002 1.50012L4.0002 3.00012L4.37422 1.62902C4.47977 1.24199 4.78983 0.944221 5.18086 0.85461L8.20918 0.160274ZM26.7912 0.160274L29.8195 0.85461C30.2105 0.944264 30.5206 1.24204 30.6262 1.62902L31.0002 3.00012L25.0002 1.50012L25.6682 0.581172C25.9245 0.228779 26.3665 0.0629505 26.7912 0.160274Z" fill="#333333"/>
<g id="Vector 65 (Stroke)" filter="url(#filter0_i_0_567)">
<path d="M35.0002 20.2585C35.0002 21.6041 34.0776 22.7829 32.7483 23.137L29.8998 23.8963C28.5791 24.248 27.179 23.6984 26.4747 22.5521L24.0999 18.6867C23.8489 18.2782 23.3961 18.0279 22.9082 18.0279H11.9261C11.4955 18.0279 11.0891 18.223 10.8261 18.5559L7.45808 22.8197C6.66419 23.8247 5.30577 24.2296 4.07266 23.8284L2.08978 23.183C0.842065 22.7769 0.000244141 21.6361 0.000244141 20.3518V19.5319C0.000244867 15.2711 0.784732 9.80491 2.31671 5.81536L2.9876 4.06915C3.33233 3.17174 4.09793 2.49037 5.04489 2.23818L9.43725 1.06839C10.1102 0.889388 10.8302 1.076 11.3234 1.55761L11.6731 1.90032C15.5304 1.26421 19.4689 1.26434 23.3261 1.90032L23.6771 1.55761C24.1703 1.076 24.8903 0.889388 25.5632 1.06839L29.9556 2.23818C30.9026 2.49037 31.6682 3.17174 32.0129 4.06915L32.6838 5.81536C34.2158 9.80491 35.0002 15.2711 35.0002 19.5319V20.2585Z" fill="#E4EAF6"/>
</g>
<path id="Intersect" d="M22.4404 9.99963C22.877 9.99976 23.2936 10.1829 23.5898 10.5035C26.954 14.1441 29.1631 18.701 29.9365 23.5973L29.9795 23.8707L29.8994 23.8932C28.5788 24.2487 27.179 23.6935 26.4746 22.5348L24.0996 18.6266C23.8486 18.2136 23.396 17.9606 22.9082 17.9606H11.9258C11.4955 17.9606 11.0891 18.1575 10.8262 18.4938L7.45801 22.8053C6.8613 23.569 5.94551 23.9884 5.00391 23.9781L5.06348 23.5973C5.83692 18.701 8.04597 14.1441 11.4102 10.5035C11.7064 10.1829 12.123 9.99976 12.5596 9.99963H22.4404Z" fill="#333333"/>
<g id="Group 1427323993">
<g id="Group 1427323991">
<circle id="Ellipse 1337" cx="13.5001" cy="14.15" r="1.60604" fill="#A5ACB9" stroke="#707487" stroke-width="1.08792"/>
<circle id="Ellipse 1338" cx="21.5001" cy="14.15" r="1.60604" fill="#707487" stroke="#A5ACB9" stroke-width="1.08792"/>
</g>
<g id="Group 1427323992">
<circle id="Ellipse 1331" cx="28.0002" cy="5.66667" r="1.16667" fill="#FFDC50"/>
<circle id="Ellipse 1333" cx="25.6667" cy="8.00003" r="1.16667" fill="#82B9FF"/>
<circle id="Ellipse 1334" cx="30.3339" cy="8.00003" r="1.16667" fill="#F9768C"/>
<circle id="Ellipse 1332" cx="28.0002" cy="10.3334" r="1.16667" fill="#1CDCEA"/>
</g>
<path id="Union_2" d="M6.72949 8.66406C6.88136 8.51219 7.12743 8.51219 7.2793 8.66406L7.94336 9.32812C8.0891 9.47397 8.1709 9.67174 8.1709 9.87793V10.7227C8.17066 11.1519 7.82288 11.4999 7.39355 11.5H6.61523C6.18599 11.4998 5.83812 11.1519 5.83789 10.7227V9.87793C5.83789 9.67178 5.91974 9.47396 6.06543 9.32812L6.72949 8.66406ZM5.12207 6.83301C5.32832 6.83301 5.52602 6.9157 5.67188 7.06152L6.33594 7.72559C6.48767 7.87747 6.48776 8.12356 6.33594 8.27539L5.67188 8.93945C5.52605 9.08505 5.32815 9.16699 5.12207 9.16699H4.27734C3.84799 9.16676 3.5 8.81808 3.5 8.38867V7.61133C3.5 7.18192 3.84799 6.83324 4.27734 6.83301H5.12207ZM9.72754 6.83301C10.1569 6.83324 10.5049 7.18192 10.5049 7.61133V8.38867C10.5049 8.81808 10.1569 9.16676 9.72754 9.16699H8.88281C8.67673 9.16699 8.47883 9.08505 8.33301 8.93945L7.66895 8.27539C7.51712 8.12356 7.51721 7.87747 7.66895 7.72559L8.33301 7.06152C8.47886 6.9157 8.67656 6.83301 8.88281 6.83301H9.72754ZM7.39355 4.5C7.82288 4.5001 8.17066 4.84805 8.1709 5.27734V6.12207C8.1709 6.32826 8.0891 6.52603 7.94336 6.67188L7.2793 7.33594C7.12743 7.48781 6.88136 7.48781 6.72949 7.33594L6.06543 6.67188C5.91974 6.52604 5.83789 6.32822 5.83789 6.12207V5.27734C5.83813 4.84811 6.18599 4.50019 6.61523 4.5H7.39355Z" fill="#707487"/>
<g clip-path="url(#paint0_angular_0_567_clip_path)" data-figma-skip-parse="true"><g transform="matrix(7.31512e-10 -0.00275225 0.00654546 1.47646e-09 17.5 4.74992)"><foreignObject x="-1361.92" y="-1361.92" width="2723.84" height="2723.84"><div xmlns="http://www.w3.org/1999/xhtml" style="background:conic-gradient(from 90deg,rgba(8, 101, 254, 0) 0deg,rgba(8, 101, 254, 0) 36.3388deg,rgba(8, 101, 254, 1) 143.654deg,rgba(8, 101, 254, 1) 214.615deg,rgba(8, 101, 254, 0) 325.385deg,rgba(8, 101, 254, 0) 360deg);height:100%;width:100%;opacity:1"></div></foreignObject></g></g><path id="Vector 66" d="M23.2771 3.60126L22.787 3.50225L23.2771 3.60126ZM22.9427 5.25659L22.4526 5.15759L22.9427 5.25659ZM11.7225 3.60099L11.2324 3.69985L11.5662 5.35481L12.0563 5.25595L12.5464 5.15709L12.2126 3.50213L11.7225 3.60099ZM14.1892 7.00159V7.50159H20.81V7.00159V6.50159H14.1892V7.00159ZM22.9427 5.25659L23.4328 5.3556L23.7672 3.70027L23.2771 3.60126L22.787 3.50225L22.4526 5.15759L22.9427 5.25659ZM12.6126 2.33002L12.6796 2.82552C15.8758 2.39363 19.1239 2.39361 22.3201 2.82547L22.387 2.32997L22.454 1.83448C19.1689 1.39061 15.8307 1.39062 12.5457 1.83452L12.6126 2.33002ZM23.2771 3.60126L23.7672 3.70027C23.9442 2.82411 23.3604 1.95694 22.454 1.83448L22.387 2.32997L22.3201 2.82547C22.6333 2.8678 22.8537 3.17206 22.787 3.50225L23.2771 3.60126ZM20.81 7.00159V7.50159C22.0835 7.50159 23.1806 6.60396 23.4328 5.3556L22.9427 5.25659L22.4526 5.15759C22.2947 5.93941 21.6076 6.50159 20.81 6.50159V7.00159ZM12.0563 5.25595L11.5662 5.35481C11.818 6.60354 12.9153 7.50159 14.1892 7.50159V7.00159V6.50159C13.3914 6.50159 12.7042 5.93915 12.5464 5.15709L12.0563 5.25595ZM11.7225 3.60099L12.2126 3.50213C12.146 3.17199 12.3664 2.86784 12.6796 2.82552L12.6126 2.33002L12.5457 1.83452C11.6395 1.95697 11.0557 2.82383 11.2324 3.69985L11.7225 3.60099Z" data-figma-gradient-fill="{&#34;type&#34;:&#34;GRADIENT_ANGULAR&#34;,&#34;stops&#34;:[{&#34;color&#34;:{&#34;r&#34;:0.031372550874948502,&#34;g&#34;:0.39607843756675720,&#34;b&#34;:0.99607843160629272,&#34;a&#34;:0.0},&#34;position&#34;:0.10094111412763596},{&#34;color&#34;:{&#34;r&#34;:0.031372550874948502,&#34;g&#34;:0.39607843756675720,&#34;b&#34;:0.99607843160629272,&#34;a&#34;:1.0},&#34;position&#34;:0.39903846383094788},{&#34;color&#34;:{&#34;r&#34;:0.031372550874948502,&#34;g&#34;:0.39607843756675720,&#34;b&#34;:0.99607843160629272,&#34;a&#34;:1.0},&#34;position&#34;:0.59615385532379150},{&#34;color&#34;:{&#34;r&#34;:0.031372550874948502,&#34;g&#34;:0.39607843756675720,&#34;b&#34;:0.99607843160629272,&#34;a&#34;:0.0},&#34;position&#34;:0.90384614467620850}],&#34;transform&#34;:{&#34;m00&#34;:1.4630230680268141e-06,&#34;m01&#34;:13.090910911560059,&#34;m02&#34;:10.954543113708496,&#34;m10&#34;:-5.5044918060302734,&#34;m11&#34;:2.9529146559070796e-06,&#34;m12&#34;:7.5021677017211914},&#34;opacity&#34;:1.0,&#34;blendMode&#34;:&#34;NORMAL&#34;,&#34;stopsVar&#34;:[{&#34;color&#34;:{&#34;r&#34;:0.031372550874948502,&#34;g&#34;:0.39607843756675720,&#34;b&#34;:0.99607843160629272,&#34;a&#34;:0.0},&#34;position&#34;:0.10094111412763596},{&#34;color&#34;:{&#34;r&#34;:0.031372550874948502,&#34;g&#34;:0.39607843756675720,&#34;b&#34;:0.99607843160629272,&#34;a&#34;:1.0},&#34;position&#34;:0.39903846383094788},{&#34;color&#34;:{&#34;r&#34;:0.031372550874948502,&#34;g&#34;:0.39607843756675720,&#34;b&#34;:0.99607843160629272,&#34;a&#34;:1.0},&#34;position&#34;:0.59615385532379150},{&#34;color&#34;:{&#34;r&#34;:0.031372550874948502,&#34;g&#34;:0.39607843756675720,&#34;b&#34;:0.99607843160629272,&#34;a&#34;:0.0},&#34;position&#34;:0.90384614467620850}],&#34;visible&#34;:true}"/>
</g>
</g>
<defs>
<filter id="filter0_i_0_567" x="0.000244141" y="1.00159" width="35" height="23" filterUnits="userSpaceOnUse" color-interpolation-filters="sRGB">
<feFlood flood-opacity="0" result="BackgroundImageFix"/>
<feBlend mode="normal" in="SourceGraphic" in2="BackgroundImageFix" result="shape"/>
<feColorMatrix in="SourceAlpha" type="matrix" values="0 0 0 0 0 0 0 0 0 0 0 0 0 0 0 0 0 0 127 0" result="hardAlpha"/>
<feOffset/>
<feGaussianBlur stdDeviation="2.48668"/>
<feComposite in2="hardAlpha" operator="arithmetic" k2="-1" k3="1"/>
<feColorMatrix type="matrix" values="0 0 0 0 0.67451 0 0 0 0 0.729412 0 0 0 0 0.909804 0 0 0 1 0"/>
<feBlend mode="normal" in2="shape" result="effect1_innerShadow_0_567"/>
</filter>
<clipPath id="paint0_angular_0_567_clip_path"><path id="Vector 66" d="M23.2771 3.60126L22.787 3.50225L23.2771 3.60126ZM22.9427 5.25659L22.4526 5.15759L22.9427 5.25659ZM11.7225 3.60099L11.2324 3.69985L11.5662 5.35481L12.0563 5.25595L12.5464 5.15709L12.2126 3.50213L11.7225 3.60099ZM14.1892 7.00159V7.50159H20.81V7.00159V6.50159H14.1892V7.00159ZM22.9427 5.25659L23.4328 5.3556L23.7672 3.70027L23.2771 3.60126L22.787 3.50225L22.4526 5.15759L22.9427 5.25659ZM12.6126 2.33002L12.6796 2.82552C15.8758 2.39363 19.1239 2.39361 22.3201 2.82547L22.387 2.32997L22.454 1.83448C19.1689 1.39061 15.8307 1.39062 12.5457 1.83452L12.6126 2.33002ZM23.2771 3.60126L23.7672 3.70027C23.9442 2.82411 23.3604 1.95694 22.454 1.83448L22.387 2.32997L22.3201 2.82547C22.6333 2.8678 22.8537 3.17206 22.787 3.50225L23.2771 3.60126ZM20.81 7.00159V7.50159C22.0835 7.50159 23.1806 6.60396 23.4328 5.3556L22.9427 5.25659L22.4526 5.15759C22.2947 5.93941 21.6076 6.50159 20.81 6.50159V7.00159ZM12.0563 5.25595L11.5662 5.35481C11.818 6.60354 12.9153 7.50159 14.1892 7.50159V7.00159V6.50159C13.3914 6.50159 12.7042 5.93915 12.5464 5.15709L12.0563 5.25595ZM11.7225 3.60099L12.2126 3.50213C12.146 3.17199 12.3664 2.86784 12.6796 2.82552L12.6126 2.33002L12.5457 1.83452C11.6395 1.95697 11.0557 2.82383 11.2324 3.69985L11.7225 3.60099Z"/></clipPath></defs>
</svg>
